<svg width="1407" height="649" viewBox="0 0 1407 649" fill="none" xmlns="http://www.w3.org/2000/svg">
<g opacity="0.2">
<path d="M1.5 1.5V647" stroke="#142471" stroke-width="3" stroke-linecap="round"/>
<path d="M53.5 53.5L53.5 595.5" stroke="#142471" stroke-width="3" stroke-linecap="round"/>
<path d="M105.5 92.5L105.5 557.5" stroke="#142471" stroke-width="3" stroke-linecap="round"/>
<path d="M157.5 127.5L157.5 522.5" stroke="#142471" stroke-width="3" stroke-linecap="round"/>
<path d="M209.5 104.5L209.5 545.5" stroke="#142471" stroke-width="3" stroke-linecap="round"/>
<path d="M261.5 76.5L261.5 572.5" stroke="#142471" stroke-width="3" stroke-linecap="round"/>
<path d="M313.5 44.5L313.5 604.5" stroke="#142471" stroke-width="3" stroke-linecap="round"/>
<path d="M365.5 17.5L365.5 631.5" stroke="#142471" stroke-width="3" stroke-linecap="round"/>
<path d="M417.5 34.5L417.5 614.5" stroke="#142471" stroke-width="3" stroke-linecap="round"/>
<path d="M469.5 66.5L469.5 582.5" stroke="#142471" stroke-width="3" stroke-linecap="round"/>
<path d="M521.5 92.5L521.5 557.5" stroke="#142471" stroke-width="3" stroke-linecap="round"/>
<path d="M573.5 115.5L573.5 533.5" stroke="#142471" stroke-width="3" stroke-linecap="round"/>
<path d="M625.5 92.5L625.5 556.5" stroke="#142471" stroke-width="3" stroke-linecap="round"/>
<path d="M677.5 66.5L677.5 582.5" stroke="#142471" stroke-width="3" stroke-linecap="round"/>
<path d="M729.5 35.5L729.5 614.5" stroke="#142471" stroke-width="3" stroke-linecap="round"/>
<path d="M781.5 1.5V647" stroke="#142471" stroke-width="3" stroke-linecap="round"/>
<path d="M833.5 35.5L833.5 614.5" stroke="#142471" stroke-width="3" stroke-linecap="round"/>
<path d="M885.5 66.5L885.5 582.5" stroke="#142471" stroke-width="3" stroke-linecap="round"/>
<path d="M937.5 92.5L937.5 556.5" stroke="#142471" stroke-width="3" stroke-linecap="round"/>
<path d="M989.5 115.5L989.5 533.5" stroke="#142471" stroke-width="3" stroke-linecap="round"/>
<path d="M1041.5 141.5L1041.5 507.5" stroke="#142471" stroke-width="3" stroke-linecap="round"/>
<path d="M1093.5 163.5L1093.5 485.5" stroke="#142471" stroke-width="3" stroke-linecap="round"/>
<path d="M1145.5 141.5L1145.5 507.5" stroke="#142471" stroke-width="3" stroke-linecap="round"/>
<path d="M1197.5 115.5L1197.5 533.5" stroke="#142471" stroke-width="3" stroke-linecap="round"/>
<path d="M1249.5 92.5L1249.5 556.5" stroke="#142471" stroke-width="3" stroke-linecap="round"/>
<path d="M1301.5 66.5L1301.5 582.5" stroke="#142471" stroke-width="3" stroke-linecap="round"/>
<path d="M1353.5 34.5L1353.5 614.5" stroke="#142471" stroke-width="3" stroke-linecap="round"/>
<path d="M1405.5 1.5L1405.5 647.5" stroke="#142471" stroke-width="3" stroke-linecap="round"/>
</g>
</svg>
